Coordinates
version=1
nRows=14
nColumns=40
inDegrees=yes

Units are S.I. units (second, meters, Newtons, ...)
Angles are in degrees.

endheader
time	pelvis_tilt	pelvis_list	pelvis_rotation	pelvis_tx	pelvis_ty	pelvis_tz	hip_flexion_r	hip_adduction_r	hip_rotation_r	knee_angle_r	knee_angle_r_beta	ankle_angle_r	subtalar_angle_r	mtp_angle_r	hip_flexion_l	hip_adduction_l	hip_rotation_l	knee_angle_l	knee_angle_l_beta	ankle_angle_l	subtalar_angle_l	mtp_angle_l	lumbar_extension	lumbar_bending	lumbar_rotation	arm_flex_r	arm_add_r	arm_rot_r	elbow_flex_r	pro_sup_r	wrist_flex_r	wrist_dev_r	arm_flex_l	arm_add_l	arm_rot_l	elbow_flex_l	pro_sup_l	wrist_flex_l	wrist_dev_l
      6.71014286	     -2.40872478	     -2.80050321	      4.35617769	      1.02469595	      0.93702344	      0.50710921	      8.17285623	      1.25198141	    -15.23126097	     13.04833124	     13.04833124	      9.06212956	     -1.28615895	     -6.41207228	     30.03934095	     -8.11977253	      2.19858614	     33.18671050	     33.18671050	      9.41921557	    -15.94103605	      9.29287589	    -11.71056753	      3.54121709	      1.66323748	     23.30179842	    -18.05084155	     -3.00244283	     66.82086472	     45.25401832	      0.00000000	      0.00000000	      6.66789993	    -10.31609272	     -5.90067679	     38.42931629	     46.94077618	      0.00000000	      0.00000000
      6.72278571	     -2.71710721	     -2.68895099	      4.62307715	      1.02294492	      0.93679809	      0.50715652	      8.09945696	      1.16624393	    -15.37318975	     12.77026256	     12.77026256	      9.19496381	     -1.29144679	     -6.49124533	     30.06403057	     -7.62465876	      2.69254283	     29.76325255	     29.76325255	      9.48280530	    -14.23625274	      9.44675980	    -11.67329234	      3.33854681	      1.46353289	     24.63025131	    -17.63868118	     -2.93072535	     68.09730209	     45.21602991	      0.00000000	      0.00000000	      6.36897510	    -10.50288440	     -5.93231523	     37.63322189	     46.92834892	      0.00000000	      0.00000000
      6.73542857	     -2.96348091	     -2.67598955	      4.90648394	      1.02125148	      0.93650121	      0.50712546	      7.95416881	      1.17588204	    -15.64904265	     12.48283048	     12.48283048	      9.33207036	     -1.16292252	     -6.65510294	     30.06473905	     -7.28303166	      3.09465552	     26.65023433	     26.65023433	      9.38653844	    -12.41758856	      9.35162392	    -11.73352361	      3.28603041	      1.14461657	     25.92527520	    -17.24302530	     -2.55906511	     69.92014756	     45.15083626	      0.00000000	      0.00000000	      6.25898966	    -10.63641984	     -6.02409662	     36.16287522	     46.91832970	      0.00000000	      0.00000000
      6.74807143	     -3.28371056	     -2.70103849	      5.17713667	      1.01960214	      0.93599214	      0.50701331	      7.90641161	      1.20083537	    -15.96028384	     12.21879821	     12.21879821	      9.38307352	     -0.95839250	     -6.89887490	     30.18574184	     -7.01628244	      3.31991406	     23.89925146	     23.89925146	      9.03319954	    -10.66228532	      8.72980401	    -11.68420995	      3.23777064	      1.29630269	     26.67643720	    -17.46835376	     -1.78791272	     72.29804817	     45.06060882	      0.00000000	      0.00000000	      6.90475385	    -10.63347451	     -6.39901503	     33.69029157	     46.93328974	      0.00000000	      0.00000000
      6.76071429	     -3.53329933	     -2.71760019	      5.36549402	      1.01816176	      0.93554474	      0.50684860	      7.85033373	      1.22482251	    -16.04842201	     12.11696624	     12.11696624	      9.63325753	     -1.01295427	     -7.01043392	     30.20863710	     -6.78424890	      3.36066566	     21.50878236	     21.50878236	      8.82021961	     -9.22609972	      8.97714621	    -11.65536939	      3.20030401	      1.24965229	     27.78777922	    -17.09910214	     -1.70771895	     73.46578967	     45.02721802	      0.00000000	      0.00000000	      6.60280020	    -10.61637724	     -6.44194080	     32.95407189	     46.92463737	      0.00000000	      0.00000000
      6.77335714	     -3.88319340	     -2.96834161	      5.59078847	      1.01658779	      0.93469228	      0.50662200	      7.94910355	      1.47108100	    -16.22316083	     12.03823417	     12.03823417	      9.80352008	     -1.03168125	     -7.08622608	     30.65825257	     -6.74842451	      3.48385400	     19.96512854	     19.96512854	      8.57613511	     -8.25039519	      9.18678343	    -11.50146387	      3.39800286	      1.43889079	     29.02746127	    -17.02304622	     -1.70854504	     74.27952089	     45.00684342	      0.00000000	      0.00000000	      6.44318027	    -10.63291329	     -6.44869259	     32.60109786	     46.91945088	      0.00000000	      0.00000000
      6.78600000	     -3.99750590	     -2.98880108	      5.77022636	      1.01551263	      0.93439378	      0.50631196	      7.66163192	      1.49686866	    -16.48445184	     11.82570618	     11.82570618	     10.02744569	     -0.67199540	     -7.09975755	     30.58155083	     -6.63635492	      2.84558140	     18.42702893	     18.42702893	      7.95298116	     -7.01032778	      8.65964508	    -11.65156272	      3.37437295	      1.11504149	     29.68822471	    -16.66212383	     -0.66460564	     76.90562591	     44.90200193	      0.00000000	      0.00000000	      6.57732906	    -10.75285295	     -6.67468062	     30.39460648	     46.92613571	      0.00000000	      0.00000000
      6.79864286	     -4.18656067	     -3.09240930	      5.91199661	      1.01449185	      0.93386039	      0.50592680	      7.54546554	      1.59554625	    -16.59335756	     11.76365070	     11.76365070	     10.24383866	     -0.64294694	     -7.11654793	     30.68251362	     -6.56159733	      2.30951339	     17.46347308	     17.46347308	      7.37200545	     -6.51002754	      8.70525235	    -11.63047947	      3.39821482	      1.14982969	     30.56574005	    -16.31289758	     -0.48412254	     77.98385195	     44.86973633	      0.00000000	      0.00000000	      6.38901499	    -10.83637645	     -6.75271449	     29.76302466	     46.92620702	      0.00000000	      0.00000000
      6.81128571	     -4.36630796	     -3.29098615	      6.04083478	      1.01366422	      0.93321891	      0.50546698	      7.39373923	      1.79417151	    -16.76452476	     11.66218980	     11.66218980	     10.47029684	     -0.49073524	     -7.10092404	     30.85883151	     -6.60160555	      1.67311160	     17.03867106	     17.03867106	      6.74281878	     -6.29385718	      8.55606493	    -11.58919705	      3.55070487	      1.11728953	     31.38697222	    -15.93189692	     -0.16911419	     79.16839199	     44.82967188	      0.00000000	      0.00000000	      6.15303317	    -10.91788471	     -6.82520486	     29.12600591	     46.92542677	      0.00000000	      0.00000000
      6.82392857	     -4.50234172	     -3.52375305	      6.12180773	      1.01312015	      0.93253403	      0.50493925	      7.17837539	      2.02543360	    -16.93599993	     11.55524928	     11.55524928	     10.72858534	     -0.20048552	     -7.02995153	     30.99755472	     -6.71796468	      0.95169265	     17.04039252	     17.04039252	      6.00300099	     -6.33475209	      8.13271946	    -11.56457716	      3.72939831	      1.15940202	     32.07235900	    -15.63387535	      0.30380994	     80.39303870	     44.78518495	      0.00000000	      0.00000000	      5.91638554	    -11.00496169	     -6.93573350	     28.51691706	     46.92845476	      0.00000000	      0.00000000
      6.83657143	     -4.63414378	     -3.74973095	      6.14091361	      1.01282528	      0.93181000	      0.50433496	      6.96069458	      2.24879580	    -17.01754252	     11.48103917	     11.48103917	     10.96660066	     -0.02040493	     -7.01685573	     31.04073996	     -6.84890813	      0.26105055	     17.28449356	     17.28449356	      5.32968107	     -6.63944003	      8.02015268	    -11.46445241	      3.85855313	      1.41851391	     32.66548839	    -15.43896629	      0.52185692	     81.00880931	     44.76451023	      0.00000000	      0.00000000	      5.69757318	    -11.00957863	     -6.99177487	     28.28247396	     46.92861729	      0.00000000	      0.00000000
      6.84921429	     -4.75590411	     -3.96504312	      6.06697804	      1.01287028	      0.93104253	      0.50373758	      6.72209662	      2.46604554	    -16.99472959	     11.42577922	     11.42577922	     11.22218458	      0.14962109	     -7.05900481	     30.92664713	     -7.02414123	     -0.42567938	     17.63197708	     17.63197708	      4.70140516	     -7.01902336	      8.07966599	    -11.33181414	      3.98778568	      1.75512145	     33.08346406	    -15.18947792	      0.67706710	     81.40670627	     44.74984869	      0.00000000	      0.00000000	      5.39020783	    -11.08325857	     -7.03180014	     28.11316545	     46.92773126	      0.00000000	      0.00000000
      6.86185714	     -4.77674993	     -4.30604082	      6.06334505	      1.01325102	      0.93018436	      0.50291666	      6.29751165	      2.81493225	    -17.18699985	     11.25974187	     11.25974187	     11.51928869	      0.62385817	     -6.97815921	     30.82185738	     -7.30448619	     -0.86032687	     18.42466363	     18.42466363	      4.10798018	     -7.48865485	      7.63002198	    -11.30700404	      4.28359712	      1.71438648	     33.52706410	    -14.73659617	      1.17420861	     82.35361449	     44.71009602	      0.00000000	      0.00000000	      4.96150202	    -11.15401972	     -7.12071687	     27.88777418	     46.92801195	      0.00000000	      0.00000000
      6.87450000	     -4.81852293	     -4.60936751	      5.97458793	      1.01396927	      0.92929406	      0.50206107	      5.87222572	      3.11286280	    -17.35696637	     11.11523687	     11.11523687	     11.92978572	      1.24836813	     -6.81567559	     30.47757099	     -7.57415175	     -1.21766718	     18.97882042	     18.97882042	      3.47499983	     -7.87154516	      6.99676040	    -11.17635925	      4.51790354	      1.87462638	     33.72112989	    -14.52898444	      1.84769250	     83.07517679	     44.67528778	      0.00000000	      0.00000000	      4.46047812	    -11.23138014	     -7.30356259	     27.89477441	     46.93701514	      0.00000000	      0.00000000
